name ./resultDataOpenSim/trcMotMarkerGrf/sub10/grf-01-08.mot
datacolumns 19
datarows 25
range 1.30400000 1.40000000
endheader

                time	     ground_force_vx	     ground_force_vy	     ground_force_vz	     ground_force_px	     ground_force_py	     ground_force_pz	   l_ground_force_vx	   l_ground_force_vy	   l_ground_force_vz	   l_ground_force_px	   l_ground_force_py	   l_ground_force_pz	     ground_torque_x	     ground_torque_y	     ground_torque_z	   l_ground_torque_x	   l_ground_torque_y	   l_ground_torque_z	
          1.30400000	        -64.37523564	        520.12467745	        -26.12763643	          0.84278115	          0.00000000	         -0.01602210	          0.00000000	          0.00000000	          0.00000000	          0.00000000	          0.00000000	          0.00000000	          0.00000000	          0.36702756	          0.00000000	          0.00000000	          0.00000000	          0.00000000	
          1.30800000	        -60.13969217	        503.57561584	        -25.49681256	          0.84466006	          0.00000000	         -0.01623703	          0.00000000	          0.00000000	          0.00000000	          0.00000000	          0.00000000	          0.00000000	          0.00000000	          0.53472523	          0.00000000	          0.00000000	          0.00000000	          0.00000000	
          1.31200000	        -55.46084158	        487.71608200	        -25.07205464	          0.84636208	          0.00000000	         -0.01641939	          0.00000000	          0.00000000	          0.00000000	          0.00000000	          0.00000000	          0.00000000	          0.00000000	          0.69708736	          0.00000000	          0.00000000	          0.00000000	          0.00000000	
          1.31600000	        -50.59758743	        472.67946347	        -24.61814711	          0.84794409	          0.00000000	         -0.01657382	          0.00000000	          0.00000000	          0.00000000	          0.00000000	          0.00000000	          0.00000000	          0.00000000	          0.84276953	          0.00000000	          0.00000000	          0.00000000	          0.00000000	
          1.32000000	        -45.87730154	        458.55365618	        -23.94996674	          0.84945095	          0.00000000	         -0.01671165	          0.00000000	          0.00000000	          0.00000000	          0.00000000	          0.00000000	          0.00000000	          0.00000000	          0.96475503	          0.00000000	          0.00000000	          0.00000000	          0.00000000	
          1.32400000	        -41.60880244	        445.38262019	        -22.97269350	          0.85093431	          0.00000000	         -0.01684849	          0.00000000	          0.00000000	          0.00000000	          0.00000000	          0.00000000	          0.00000000	          0.00000000	          1.05978695	          0.00000000	          0.00000000	          0.00000000	          0.00000000	
          1.32800000	        -38.01537365	        433.18587786	        -21.69091311	          0.85244459	          0.00000000	         -0.01699819	          0.00000000	          0.00000000	          0.00000000	          0.00000000	          0.00000000	          0.00000000	          0.00000000	          1.12802135	          0.00000000	          0.00000000	          0.00000000	          0.00000000	
          1.33200000	        -35.19164529	        421.95921361	        -20.18870396	          0.85402147	          0.00000000	         -0.01717349	          0.00000000	          0.00000000	          0.00000000	          0.00000000	          0.00000000	          0.00000000	          0.00000000	          1.17337599	          0.00000000	          0.00000000	          0.00000000	          0.00000000	
          1.33600000	        -33.08484332	        411.66057126	        -18.59617929	          0.85566856	          0.00000000	         -0.01738449	          0.00000000	          0.00000000	          0.00000000	          0.00000000	          0.00000000	          0.00000000	          0.00000000	          1.20382470	          0.00000000	          0.00000000	          0.00000000	          0.00000000	
          1.34000000	        -31.50849853	        402.21551548	        -17.05646955	          0.85732979	          0.00000000	         -0.01762908	          0.00000000	          0.00000000	          0.00000000	          0.00000000	          0.00000000	          0.00000000	          0.00000000	          1.23045735	          0.00000000	          0.00000000	          0.00000000	          0.00000000	
          1.34400000	        -30.19132615	        393.55043468	        -15.70060588	          0.85891299	          0.00000000	         -0.01789433	          0.00000000	          0.00000000	          0.00000000	          0.00000000	          0.00000000	          0.00000000	          0.00000000	          1.26485798	          0.00000000	          0.00000000	          0.00000000	          0.00000000	
          1.34800000	        -28.84935216	        385.62799880	        -14.63201485	          0.86033152	          0.00000000	         -0.01815943	          0.00000000	          0.00000000	          0.00000000	          0.00000000	          0.00000000	          0.00000000	          0.00000000	          1.31565645	          0.00000000	          0.00000000	          0.00000000	          0.00000000	
          1.35200000	        -27.25837492	        378.46131376	        -13.91711249	          0.86153573	          0.00000000	         -0.01840117	          0.00000000	          0.00000000	          0.00000000	          0.00000000	          0.00000000	          0.00000000	          0.00000000	          1.38591043	          0.00000000	          0.00000000	          0.00000000	          0.00000000	
          1.35600000	        -25.30561780	        372.09744391	        -13.57857929	          0.86252083	          0.00000000	         -0.01860152	          0.00000000	          0.00000000	          0.00000000	          0.00000000	          0.00000000	          0.00000000	          0.00000000	          1.47261525	          0.00000000	          0.00000000	          0.00000000	          0.00000000	
          1.36000000	        -23.01162765	        366.57967963	        -13.59209979	          0.86330613	          0.00000000	         -0.01875279	          0.00000000	          0.00000000	          0.00000000	          0.00000000	          0.00000000	          0.00000000	          0.00000000	          1.56838132	          0.00000000	          0.00000000	          0.00000000	          0.00000000	
          1.36400000	        -20.52089414	        361.92544306	        -13.88846856	          0.86392068	          0.00000000	         -0.01885934	          0.00000000	          0.00000000	          0.00000000	          0.00000000	          0.00000000	          0.00000000	          0.00000000	          1.66410991	          0.00000000	          0.00000000	          0.00000000	          0.00000000	
          1.36800000	        -18.06057466	        358.14375156	        -14.36357675	          0.86441272	          0.00000000	         -0.01893600	          0.00000000	          0.00000000	          0.00000000	          0.00000000	          0.00000000	          0.00000000	          0.00000000	          1.75120504	          0.00000000	          0.00000000	          0.00000000	          0.00000000	
          1.37200000	        -15.87136266	        355.25866333	        -14.89997479	          0.86484798	          0.00000000	         -0.01900090	          0.00000000	          0.00000000	          0.00000000	          0.00000000	          0.00000000	          0.00000000	          0.00000000	          1.82261465	          0.00000000	          0.00000000	          0.00000000	          0.00000000	
          1.37600000	        -14.12792874	        353.29677647	        -15.39740261	          0.86528403	          0.00000000	         -0.01906566	          0.00000000	          0.00000000	          0.00000000	          0.00000000	          0.00000000	          0.00000000	          0.00000000	          1.87310665	          0.00000000	          0.00000000	          0.00000000	          0.00000000	
          1.38000000	        -12.87847673	        352.25566530	        -15.79836272	          0.86573579	          0.00000000	         -0.01913583	          0.00000000	          0.00000000	          0.00000000	          0.00000000	          0.00000000	          0.00000000	          0.00000000	          1.89972036	          0.00000000	          0.00000000	          0.00000000	          0.00000000	
          1.38400000	        -12.02940128	        352.09687553	        -16.09397159	          0.86617962	          0.00000000	         -0.01920982	          0.00000000	          0.00000000	          0.00000000	          0.00000000	          0.00000000	          0.00000000	          0.00000000	          1.90288818	          0.00000000	          0.00000000	          0.00000000	          0.00000000	
          1.38800000	        -11.37838493	        352.76911839	        -16.31072824	          0.86657040	          0.00000000	         -0.01928086	          0.00000000	          0.00000000	          0.00000000	          0.00000000	          0.00000000	          0.00000000	          0.00000000	          1.88771993	          0.00000000	          0.00000000	          0.00000000	          0.00000000	
          1.39200000	        -10.67267344	        354.22786997	        -16.49435677	          0.86687101	          0.00000000	         -0.01934569	          0.00000000	          0.00000000	          0.00000000	          0.00000000	          0.00000000	          0.00000000	          0.00000000	          1.86426577	          0.00000000	          0.00000000	          0.00000000	          0.00000000	
          1.39600000	         -9.66647354	        356.43547346	        -16.70365935	          0.86705573	          0.00000000	         -0.01939932	          0.00000000	          0.00000000	          0.00000000	          0.00000000	          0.00000000	          0.00000000	          0.00000000	          1.84586727	          0.00000000	          0.00000000	          0.00000000	          0.00000000	
          1.40000000	         -8.16877334	        359.36860122	        -17.01027053	          0.86710087	          0.00000000	         -0.01943596	          0.00000000	          0.00000000	          0.00000000	          0.00000000	          0.00000000	          0.00000000	          0.00000000	          1.84585573	          0.00000000	          0.00000000	          0.00000000	          0.00000000	
